<?xml version="1.0" encoding="utf-8"?>
<!-- Generator: Adobe Illustrator 21.1.0, SVG Export Plug-In . SVG Version: 6.00 Build 0)  -->
<svg version="1.1" id="Layer_1" xmlns="http://www.w3.org/2000/svg" xmlns:xlink="http://www.w3.org/1999/xlink" x="0px" y="0px"
	 viewBox="0 0 432.6 97.5" enable-background="new 0 0 432.6 97.5" xml:space="preserve">
<path fill="#FFFFFF" d="M50,0L50,0C22.4,0,0,22.4,0,50c0,21.5,13.8,40.7,34.2,47.5c2.5,0.5,3.4-1.1,3.4-2.4s0-5.1-0.1-9.3
	c-13.9,3-16.8-5.9-16.8-5.9c-2.3-5.8-5.6-7.3-5.6-7.3c-4.5-3.1,0.3-3,0.3-3c5,0.4,7.7,5.2,7.7,5.2c4.5,7.6,11.7,5.4,14.5,4.1
	c0.2-2.5,1.3-4.9,3.2-6.7c-11.1-1.3-22.8-5.6-22.8-24.8c-0.1-5,1.8-9.8,5.2-13.4c-0.5-1.3-2.2-6.4,0.5-13.2c0,0,4.2-1.3,13.8,5.1
	c8.2-2.2,16.8-2.2,25,0c9.6-6.5,13.7-5.1,13.7-5.1c2.7,6.9,1,12,0.5,13.2c3.4,3.6,5.3,8.4,5.2,13.4c0,19.2-11.7,23.4-22.8,24.7
	c1.8,1.5,3.4,4.6,3.4,9.3c0,6.7-0.1,12.1-0.1,13.7c0,1.3,0.9,2.9,3.4,2.4c26.2-8.7,40.4-37,31.6-63.2C90.7,13.7,71.5-0.1,50,0z"/>
<path fill="#FFFFFF" d="M17.6,71.2c-0.1,0.2,0.1,0.6,0.5,0.8c0.4,0.2,0.8,0.1,0.9-0.1c0.1-0.2-0.1-0.6-0.5-0.8S17.8,70.9,17.6,71.2z
	"/>
<path fill="#FFFFFF" d="M20.8,73.1c-0.3-0.4-0.8-0.4-1-0.2s-0.2,0.7,0.2,1c0.3,0.4,0.8,0.5,1,0.2h0C21.2,73.9,21.1,73.4,20.8,73.1z"
	/>
<path fill="#FFFFFF" d="M21.8,75.3c-0.3,0.2-0.3,0.8,0,1.2s0.8,0.6,1.1,0.4h0c0.3-0.2,0.3-0.8,0-1.2C22.6,75.3,22.1,75.1,21.8,75.3z
	"/>
<path fill="#FFFFFF" d="M24.1,78.2c-0.3,0.3-0.1,0.9,0.3,1.3c0.4,0.4,1,0.5,1.3,0.2c0.3-0.3,0.2-0.9-0.3-1.3
	C25,78.1,24.5,78,24.1,78.2z"/>
<path fill="#FFFFFF" d="M28.5,80.4c-0.6-0.2-1.1,0-1.2,0.4s0.2,0.8,0.8,1c0.6,0.2,1.1,0,1.2-0.4v0C29.5,81,29.1,80.5,28.5,80.4z"/>
<path fill="#FFFFFF" d="M31.3,81.7c0,0.4,0.5,0.7,1.1,0.7c0.6,0,1.1-0.3,1.1-0.8c0-0.4-0.5-0.7-1.1-0.7
	C31.8,80.9,31.3,81.2,31.3,81.7z"/>
<path fill="#FFFFFF" d="M36.1,80.4c-0.6,0.1-1,0.5-0.9,0.9c0.1,0.4,0.6,0.7,1.2,0.5c0.6-0.1,1-0.5,0.9-0.9
	C37.2,80.6,36.6,80.3,36.1,80.4z"/>
<path fill="#FFFFFF" d="M298.2,35c-13,0-21.7,10.3-21.7,25.1c0,14.8,8.5,24.7,22.5,24.7c9.8,0,16.9-4.9,19.3-12.1l-7.2-2
	c-0.3,0.7-0.6,1.4-1,2c-2.2,3.7-6.1,5.5-11.1,5.5c-8.8,0-14.2-5.5-15-15.9h34.9v-3.1C318.9,41.2,308.2,35,298.2,35z M284.2,55.9
	c1.2-9,6.7-14.2,14.1-14.2c8,0,13.2,6,13.2,14.2H284.2z"/>
<path fill="#FFFFFF" d="M193,35c-10.8,0-19.4,6.3-19.4,17.4v32.4h7.6V52.5c0-6.7,5.3-10.5,11.8-10.5s11.7,3.8,11.7,10.5l0,32.3h7.6
	V52.4C212.4,41.3,203.9,35,193,35z"/>
<path fill="#FFFFFF" d="M374.1,57.8L367,56c-5.5-1.4-8.2-4.3-8.2-7.5c0-4.1,4.4-7.3,10.3-7.3c7.4,0,9.3,4.9,10.2,7l6.6-1.9
	c-2.5-7-7.9-11.4-16.8-11.4c-10.2,0-17.7,5.8-17.7,13.9c0,5.9,3.9,11.2,12.7,13.4l8,2c4.8,1.1,6.9,3.3,6.9,6.4c0,4-4,7.7-10.9,7.7
	c-7.2,0-10.5-3.9-12.3-8.3l-6.8,2.5c2.4,6,7.7,12.2,19.2,12.2c11.9,0,18.3-6.9,18.3-14.3C386.6,64.9,382.9,59.9,374.1,57.8z"/>
<polygon fill="#FFFFFF" points="258,84.7 276.4,35 276.4,35 "/>
<polygon fill="#FFFFFF" points="268.4,35 254.5,75 268.4,35 "/>
<polygon fill="#FFFFFF" points="268.4,35 254.5,75 240.6,35 232.6,35 251,84.7 258,84.7 276.4,35 "/>
<rect x="221.3" y="35" fill="#FFFFFF" width="7.3" height="49.8"/>
<path fill="#FFFFFF" d="M224.9,18.6c-2.8,0-5.1,2.3-5.1,5.1c0,2.8,2.3,5.1,5.1,5.1c0,0,0,0,0,0c2.8,0,5.1-2.3,5.1-5.1
	S227.7,18.6,224.9,18.6z"/>
<path fill="#FFFFFF" d="M431.4,59c0-17.9-10.7-24.1-20.7-24.1C397.7,35,389,45.2,389,60s8.5,24.7,22.5,24.7
	c9.8,0,16.9-4.9,19.2-12.2l-7.1-2c-1.9,5-6.2,7.5-12,7.5c-8.8,0-14.2-5.5-15-15.9h34.9V59z M396.7,55.9c1.2-9,6.7-14.2,14.1-14.2
	c8,0,13.2,6,13.2,14.2H396.7z"/>
<path fill="#FFFFFF" d="M342,34.9c-10.5,0-18.8,6.1-18.8,16.8v33h7.4V51.9c0-6.5,5.2-10.2,11.4-10.2c1.7,0,3.3,0.3,4.9,0.8
	c0.8-2.2,2.2-6.2,2.2-6.5C346.9,35.3,344.5,34.9,342,34.9z"/>
<path fill="#FFFFFF" d="M157.3,64.5c0,4.9-2.8,9.3-7.2,11.4c-5,2.3-10.7,2.3-15.6,0c-4.4-2.1-7.2-6.5-7.2-11.4V18.9h-7.4v45.6
	c0,7.7,4.5,14.8,11.5,18.1c6.9,3.2,14.9,3.2,21.9,0c7-3.3,11.5-10.3,11.5-18.1V18.9h-7.4V64.5z"/>
</svg>
